<?xml version="1.0" encoding="UTF-8"?>
<svg width="2194px" height="303px" viewBox="0 0 2194 303" version="1.1" xmlns="http://www.w3.org/2000/svg" xmlns:xlink="http://www.w3.org/1999/xlink">
    <!-- Generator: Sketch 52.6 (67491) - http://www.bohemiancoding.com/sketch -->
    <title>onehack_london_black copy</title>
    <desc>Created with Sketch.</desc>
    <g id="onehack_london_black-copy" stroke="none" stroke-width="1" fill="none" fill-rule="evenodd">
        <g id="Group" transform="translate(317.000000, 8.000000)">
            <path d="M135.266998,108.472709 L135.266998,9.52052629 L269,9.52052629 L269,278 C21.1364692,278 247.860328,278 0,278 L0,3 L135.266998,108.472709" id="Fill-4" fill="#ffffff"></path>
            <polyline id="Fill-5" fill="#ffffff" points="511 7 511 97.6914652 455.497608 97.6914652 455.497608 109.220448 511 109.220448 511 173.779552 455.497608 173.779552 455.497608 185.308535 511 185.308535 511 276 289 276 289 7 511 7"></polyline>
            <path d="M681,202.570238 C681,224.134489 661.315789,243 636.22807,243 C612.684211,243 593,224.134489 593,202.570238 C593,178.692322 612.684211,159.826812 636.22807,159.826812 C661.315789,159.826812 681,178.692322 681,202.570238 Z M681,84.7402174 C681,106.304469 661.315789,125.173188 636.22807,125.173188 C612.684211,125.173188 593,106.304469 593,84.7402174 C593,60.8687198 612.684211,42 636.22807,42 C661.315789,42 681,60.8687198 681,84.7402174 Z" id="Fill-6" fill="#80C7F5"></path>
            <polyline id="Fill-7" fill="#80C7F5" points="998 9 827.507959 278 687 278 857.488824 9 998 9"></polyline>
            <polyline id="Fill-8" fill="#80C7F5" points="1158 9 987.506196 278 847 278 1017.4938 9 1158 9"></polyline>
            <g id="Group-14" transform="translate(1022.000000, 0.000000)" fill="#D6219C">
                <path d="M170.139906,6.44850865 L340.030433,278.23609 C42.915804,278.23609 295.829683,278.23609 0.246176487,278.23609 L170.139906,6.44850865" id="Fill-9"></path>
                <path d="M546.956185,42.3096369 L446.638837,142.217414 L546.956185,242.503048 C491.608351,297.833385 402.050501,297.833385 346.702667,242.503048 C291.35163,187.172712 291.35163,97.6431753 346.702667,42.3096369 C402.050501,-13.0206993 491.608351,-13.0206993 546.956185,42.3096369" id="Fill-11"></path>
                <polyline id="Fill-12" points="833.06467 8.88215965 732.356533 143.366994 833.06467 278.23609 569.388089 278.23609 569.388089 8.88215965 833.06467 8.88215965"></polyline>
            </g>
        </g>
        <g id="Group-7" transform="translate(13.000000, 8.000000)">
            <g id="Group-2">
                <g id="Group-6"></g>
            </g>
        </g>
        <circle id="Oval" fill="#ffffff" cx="155.5" cy="150.5" r="142.5"></circle>
    </g>
</svg>
